<svg xmlns="http://www.w3.org/2000/svg" style="display: none;">
<symbol id="clipboards" viewBox="0 0 415.998 415.998"><title>clipboards</title><g> <g> <circle cx="208.239" cy="48" r="12"/> </g> </g><g> <g> <path d="M367.998,95.999c0-17.673-14.326-32-31.999-32h-44.424c-5.926-6.583-13.538-11.62-22.284-14.136 c-7.367-2.118-13.037-7.788-15.156-15.155C248.37,14.664,229.897,0,207.998,0c-21.898,0-40.37,14.663-46.134,34.706 c-2.122,7.376-7.806,13.039-15.182,15.165c-8.736,2.518-16.341,7.55-22.262,14.128H79.999c-17.674,0-32,14.327-32,32v287.999 c0,17.673,14.326,32,32,32c73.466,0,163.758,0,256,0c17.674,0,32-14.327,32-32C367.999,293.119,367.998,206.096,367.998,95.999z M128,95.741c0.11-14.066,9.614-26.606,23.113-30.496c12.71-3.662,22.477-13.426,26.127-26.116 C181.157,25.51,193.805,16,207.998,16c14.194,0,26.842,9.51,30.758,23.13c3.652,12.698,13.413,22.459,26.111,26.11 c13.618,3.917,23.13,16.566,23.13,30.758v16H128V95.741z M335.999,399.998c-85.455,0-170.77,0-256,0c-8.823,0-16-7.178-16-16 V95.999c0-8.822,7.177-16,16-16h34.742c-1.73,4.892-2.698,10.143-2.74,15.617v32.383h191.998v-32c0-5.615-0.992-10.991-2.764-16 h34.764c8.822,0,15.999,7.178,15.999,16c0,45.743-0.001,260.254,0.002,287.999C351.999,392.82,344.822,399.998,335.999,399.998z"/> </g> </g><g> <g> <rect x="159.999" y="176" width="144" height="16"/> </g> </g><g> <g> <rect x="159.999" y="224" width="144" height="16"/> </g> </g><g> <g> <rect x="159.999" y="272" width="144" height="16"/> </g> </g><g> <g> <rect x="159.999" y="320" width="144" height="16"/> </g> </g><g> <g> <circle cx="119.999" cy="184" r="8"/> </g> </g><g> <g> <circle cx="119.999" cy="232" r="8"/> </g> </g><g> <g> <circle cx="119.999" cy="280" r="8"/> </g> </g><g> <g> <circle cx="119.999" cy="328" r="8"/> </g> </g></symbol>
<symbol id="home" viewBox="0 0 512 512"><title>home</title><g> <g> <path d="M506.555,208.064L263.859,30.367c-4.68-3.426-11.038-3.426-15.716,0L5.445,208.064 c-5.928,4.341-7.216,12.665-2.875,18.593s12.666,7.214,18.593,2.875L256,57.588l234.837,171.943c2.368,1.735,5.12,2.57,7.848,2.57 c4.096,0,8.138-1.885,10.744-5.445C513.771,220.729,512.483,212.405,506.555,208.064z"/> </g> </g><g> <g> <path d="M442.246,232.543c-7.346,0-13.303,5.956-13.303,13.303v211.749H322.521V342.009c0-36.68-29.842-66.52-66.52-66.52 s-66.52,29.842-66.52,66.52v115.587H83.058V245.847c0-7.347-5.957-13.303-13.303-13.303s-13.303,5.956-13.303,13.303v225.053 c0,7.347,5.957,13.303,13.303,13.303h133.029c6.996,0,12.721-5.405,13.251-12.267c0.032-0.311,0.052-0.651,0.052-1.036v-128.89 c0-22.009,17.905-39.914,39.914-39.914s39.914,17.906,39.914,39.914v128.89c0,0.383,0.02,0.717,0.052,1.024 c0.524,6.867,6.251,12.279,13.251,12.279h133.029c7.347,0,13.303-5.956,13.303-13.303V245.847 C455.549,238.499,449.593,232.543,442.246,232.543z"/> </g> </g></symbol>
<symbol id="back" viewBox="0 0 477.175 477.175"><title>back</title><path d="M145.188,238.575l215.5-215.5c5.3-5.3,5.3-13.8,0-19.1s-13.8-5.3-19.1,0l-225.1,225.1c-5.3,5.3-5.3,13.8,0,19.1l225.1,225 c2.6,2.6,6.1,4,9.5,4s6.9-1.3,9.5-4c5.3-5.3,5.3-13.8,0-19.1L145.188,238.575z"/></symbol>
<symbol id="human-resorces" viewBox="0 -3 511.99981 511"><title>target</title><path d="m499.902344 236.066406c-7.664063-7.070312-18.089844-11.4375-28.605469-11.984375-11.941406-.617187-23.128906 3.640625-31.460937 11.976563l-56.929688 56.332031c-1.125-1.949219-2.410156-3.789063-3.851562-5.496094-7.003907-8.316406-17.246094-12.894531-28.835938-12.894531h-79.695312c-15.027344 0-29.6875-1.949219-43.570313-5.789062-36.195313-10.011719-70.773437-2.699219-100.003906 21.160156-11.886719 9.703125-20.558594 20.257812-26.042969 27.953125l-14.289062-13.867188c-1.878907-1.824219-4.425782-2.859375-7.046876-2.859375-.023437 0-.042968 0-.066406 0-2.714844.019532-5.339844 1.148438-7.222656 3.101563l-69.464844 72.113281c-1.859375 1.929688-2.8710935 4.523438-2.81249975 7.203125.05859375 2.683594 1.17968775 5.230469 3.12109375 7.078125l117.488281 111.871094c1.949219 1.855468 4.449219 2.78125 6.945313 2.78125 2.621094 0 5.242187-1.019532 7.214844-3.042969l68.816406-70.601563c1.878906-1.929687 2.921875-4.566406 2.871094-7.261718-.050782-2.65625-1.164063-5.21875-3.070313-7.070313l-5.992187-5.8125 13.714843-1.542969c8.296875-.964843 16.734375-1.453124 25.085938-1.453124h121.253906c19.703125 0 36.4375-4.308594 49.742187-12.808594.109376-.070313.21875-.144532.328126-.21875 4.765624-3.3125 9.089843-7.238282 12.847656-11.664063l81.710937-96.128906c13.984375-16.449219 13.109375-36.976563-2.179687-51.074219zm-372.605469 244.449219-102.945313-98.023437 55.457032-57.574219 102.34375 99.316406zm359.4375-206.421875-81.710937 96.132812c-2.59375 3.050782-5.566407 5.761719-8.84375 8.058594-9.988282 6.324219-23.015626 9.535156-38.726563 9.535156h-121.257813c-9.121093 0-18.34375.535157-27.371093 1.585938l-30.148438 3.382812-63.125-61.257812c4.386719-6.503906 12.453125-17.015625 24.136719-26.554688 24.289062-19.828124 51.84375-25.667968 81.894531-17.351562 15.632813 4.324219 32.097657 6.519531 48.941407 6.519531h79.695312c14.3125 0 18.132812 12.398438 18.132812 19.722657 0 5.351562-1.71875 10.445312-4.714843 13.976562-3.25 3.824219-7.871094 5.761719-13.734375 5.761719h-69.375c-5.5625 0-10.070313 4.511719-10.070313 10.074219s4.507813 10.070312 10.070313 10.070312h69.375c11.710937 0 22.039062-4.570312 29.085937-12.867188 5.863281-6.898437 9.207031-15.96875 9.488281-25.664062l65.566407-64.878906c9.371093-9.371094 24.011719-7.019532 32.203125.535156 4.234375 3.90625 9.929687 12.113281.488281 23.21875zm0 0"/><path d="m249.117188 340.996094c-1.269532-5.417969-6.6875-8.773438-12.105469-7.507813-5.414063 1.269531-8.777344 6.6875-7.503907 12.105469l.09375.410156c1.089844 4.640625 5.226563 7.773438 9.796876 7.773438.761718 0 1.535156-.085938 2.308593-.265625 5.417969-1.269531 8.777344-6.691407 7.507813-12.105469zm0 0"/><path d="m68.078125 213h98.140625c5.34375 0 10.289062-1.734375 14.3125-4.664062 4.023438 2.929687 8.96875 4.664062 14.3125 4.664062h98.144531c5.34375 0 10.289063-1.734375 14.3125-4.664062 4.023438 2.929687 8.96875 4.664062 14.3125 4.664062h98.140625c13.445313 0 24.382813-10.941406 24.382813-24.386719v-45.765625c0-20.554687-11.503907-38.410156-28.722657-47.21875 8.34375-10.0625 13.367188-22.96875 13.367188-37.03125 0-32.035156-26.0625-58.097656-58.097656-58.097656s-58.097656 26.0625-58.097656 58.097656c0 14.0625 5.023437 26.972656 13.367187 37.03125-7.441406 3.8125-13.8125 9.316406-18.652344 15.992188-4.839843-6.679688-11.210937-12.183594-18.65625-15.992188 8.34375-10.058594 13.367188-22.96875 13.367188-37.03125 0-32.035156-26.0625-58.097656-58.097657-58.097656-32.035156 0-58.097656 26.0625-58.097656 58.097656 0 14.0625 5.027344 26.972656 13.371094 37.035156-7.445312 3.808594-13.816406 9.3125-18.65625 15.992188-4.839844-6.679688-11.210938-12.183594-18.65625-15.996094 8.34375-10.058594 13.367188-22.96875 13.367188-37.027344 0-32.039062-26.0625-58.101562-58.097657-58.101562-32.03125 0-58.09375 26.0625-58.09375 58.101562 0 14.058594 5.023438 26.96875 13.367188 37.03125-17.21875 8.808594-28.726563 26.667969-28.726563 47.21875v45.761719c0 13.445313 10.941406 24.386719 24.386719 24.386719zm302.609375-192.355469c20.925781 0 37.953125 17.023438 37.953125 37.953125 0 20.925782-17.027344 37.953125-37.953125 37.953125-20.929688 0-37.953125-17.023437-37.953125-37.953125-.003906-20.929687 17.023437-37.953125 37.953125-37.953125zm-26.167969 89.800781c7.871094 3.988282 16.757813 6.25 26.164063 6.25 9.410156 0 18.296875-2.261718 26.164062-6.25 15.652344 2.726563 27.148438 16.214844 27.148438 32.402344v45.765625c0 2.339844-1.902344 4.242188-4.242188 4.242188h-98.140625c-2.335937 0-4.238281-1.902344-4.238281-4.242188v-45.765625c-.003906-16.183594 11.496094-29.675781 27.144531-32.402344zm-100.601562-89.800781c20.925781 0 37.953125 17.023438 37.953125 37.953125 0 20.925782-17.027344 37.953125-37.953125 37.953125-20.929688 0-37.953125-17.023437-37.953125-37.953125 0-20.929687 17.023437-37.953125 37.953125-37.953125zm-26.164063 89.800781c7.867188 3.988282 16.753906 6.25 26.164063 6.25 9.410156 0 18.292969-2.261718 26.164062-6.25 15.648438 2.726563 27.148438 16.214844 27.148438 32.402344v45.765625c0 2.339844-1.902344 4.242188-4.242188 4.242188h-98.140625c-2.339844 0-4.242187-1.902344-4.242187-4.242188v-45.765625c0-16.183594 11.5-29.675781 27.148437-32.402344zm-100.605468-89.800781c20.925781 0 37.953124 17.023438 37.953124 37.953125 0 20.925782-17.027343 37.953125-37.953124 37.953125-20.925782 0-37.953126-17.027343-37.953126-37.953125 0-20.929687 17.027344-37.953125 37.953126-37.953125zm-53.3125 122.203125c0-16.183594 11.5-29.675781 27.148437-32.402344 7.871094 3.988282 16.753906 6.25 26.164063 6.25 9.410156 0 18.292968-2.261718 26.164062-6.25 15.652344 2.726563 27.148438 16.214844 27.148438 32.402344v45.765625c0 2.339844-1.902344 4.242188-4.242188 4.242188h-98.140625c-2.339844 0-4.242187-1.902344-4.242187-4.242188zm0 0"/></symbol>
<symbol id="next" viewBox="0 0 477.175 477.175"><title>next</title><path d="M360.731,229.075l-225.1-225.1c-5.3-5.3-13.8-5.3-19.1,0s-5.3,13.8,0,19.1l215.5,215.5l-215.5,215.5 c-5.3,5.3-5.3,13.8,0,19.1c2.6,2.6,6.1,4,9.5,4c3.4,0,6.9-1.3,9.5-4l225.1-225.1C365.931,242.875,365.931,234.275,360.731,229.075z "/></symbol>

<symbol id="customer-support" viewBox="0 0 569 569.54905"><title>customer-support</title><path d="m1.527344 52.246094 37.984375 66.46875c1.28125 2.246094 3.425781 3.871094 5.933593 4.5l35.4375 8.859375 121.542969 121.542969 13.429688-13.425782-123.445313-123.441406c-1.214844-1.21875-2.738281-2.082031-4.40625-2.5l-34.050781-8.542969-32.339844-56.625 27.726563-27.726562 56.648437 32.371093 8.546875 34.050782c.414063 1.671875 1.28125 3.199218 2.496094 4.414062l123.445312 123.445313 13.425782-13.429688-121.542969-121.542969-8.859375-35.417968c-.628906-2.511719-2.253906-4.660156-4.5-5.945313l-66.472656-37.980469c-3.707032-2.109374-8.371094-1.484374-11.394532 1.527344l-37.980468 37.984375c-3.0546878 3.003907-3.71875 7.675781-1.625 11.414063zm0 0"/><path d="m396.3125 187.144531-208.902344 208.90625-13.429687-13.429687 208.90625-208.902344zm0 0"/><path d="m150.847656 403.441406c-1.71875-2.859375-4.804687-4.605468-8.140625-4.605468h-56.972656c-3.332031 0-6.421875 1.746093-8.136719 4.605468l-28.488281 47.476563c-1.808594 3.007812-1.808594 6.769531 0 9.78125l28.488281 47.476562c1.714844 2.855469 4.804688 4.605469 8.136719 4.605469h56.972656c3.335938 0 6.421875-1.75 8.140625-4.605469l28.484375-47.476562c1.808594-3.011719 1.808594-6.773438 0-9.78125zm-13.511718 90.347656h-46.226563l-22.789063-37.980468 22.789063-37.984375h46.226563l22.789062 37.984375zm0 0"/><path d="m456.0625 227.914062c62.714844.210938 113.730469-50.460937 113.941406-113.175781.03125-9.546875-1.140625-19.054687-3.488281-28.308593-1.265625-5.089844-6.417969-8.1875-11.507813-6.921876-1.671874.417969-3.195312 1.28125-4.414062 2.496094l-59.109375 59.070313-46.898437-15.628907-15.640626-46.886718 59.109376-59.121094c3.707031-3.710938 3.703124-9.722656-.007813-13.429688-1.222656-1.222656-2.761719-2.089843-4.445313-2.503906-60.820312-15.402344-122.605468 21.414063-138.007812 82.230469-2.339844 9.226563-3.507812 18.710937-3.476562 28.230469.023437 7.476562.792968 14.929687 2.308593 22.25l-207.957031 207.953125c-7.320312-1.511719-14.773438-2.28125-22.246094-2.308594-62.933594 0-113.949218 51.015625-113.949218 113.949219 0 62.929687 51.015624 113.945312 113.949218 113.945312 62.929688 0 113.945313-51.015625 113.945313-113.945312-.023438-7.476563-.796875-14.929688-2.308594-22.25l49.785156-49.785156 21.773438 21.773437c3.710937 3.707031 9.71875 3.707031 13.429687 0l4.746094-4.75c4.164062-4.136719 10.894531-4.136719 15.058594 0 4.160156 4.148437 4.167968 10.882813.019531 15.042969-.003906.003906-.011719.011718-.019531.019531l-4.746094 4.746094c-3.707031 3.707031-3.707031 9.71875 0 13.425781l113.273438 113.273438c29.792968 30.066406 78.316406 30.285156 108.382812.492187 30.0625-29.792969 30.28125-78.320313.488281-108.382813-.160156-.164062-.324219-.328124-.488281-.492187l-113.273438-113.269531c-3.707031-3.707032-9.71875-3.707032-13.425781 0l-4.746093 4.746094c-4.167969 4.140624-10.894532 4.140624-15.0625 0-4.15625-4.148438-4.167969-10.882813-.019532-15.039063.007813-.007813.015625-.011719.019532-.019531l4.75-4.75c3.707031-3.707032 3.707031-9.71875 0-13.425782l-21.773438-21.773437 49.785156-49.785156c7.320313 1.511719 14.773438 2.285156 22.246094 2.308593zm37.308594 322.851563c-6.898438-.011719-13.738282-1.257813-20.195313-3.683594l74.160157-74.164062c11.191406 29.769531-3.867188 62.972656-33.636719 74.164062-6.496094 2.441407-13.382813 3.691407-20.328125 3.683594zm-107.574219-246.792969c-10.515625 12.542969-8.867187 31.238282 3.675781 41.75 11.023438 9.238282 27.089844 9.230469 38.101563-.027344l106.5625 106.65625c1.15625 1.160157 2.238281 2.382813 3.285156 3.625l-81.1875 81.1875c-1.246094-1.042968-2.46875-2.125-3.628906-3.285156l-106.644531-106.652344c10.515624-12.542968 8.867187-31.238281-3.675782-41.75-11.023437-9.242187-27.09375-9.230468-38.105468.023438l-15.191407-15.191406 81.613281-81.492188zm38.34375-95.503906-215.410156 215.367188c-2.363281 2.359374-3.3125 5.785156-2.507813 9.023437 13.027344 51.160156-17.886718 103.195313-69.050781 116.21875-51.160156 13.027344-103.195313-17.886719-116.222656-69.050781-13.023438-51.160156 17.890625-103.195313 69.054687-116.222656 15.476563-3.9375 31.691406-3.9375 47.167969 0 3.238281.792968 6.65625-.15625 9.023437-2.503907l215.359376-215.371093c2.359374-2.359376 3.308593-5.785157 2.496093-9.019532-12.9375-50.5625 17.5625-102.039062 68.125-114.980468 9.554688-2.441407 19.4375-3.378907 29.28125-2.765626l-50.089843 50.109376c-2.542969 2.539062-3.433594 6.300781-2.296876 9.710937l18.988282 56.976563c.949218 2.832031 3.175781 5.058593 6.011718 6l56.976563 18.992187c3.40625 1.136719 7.167969.25 9.710937-2.289063l50.089844-50.089843c.113282 1.8125.171875 3.605469.171875 5.390625.265625 52.175781-41.8125 94.6875-93.988281 94.957031-8.066406.039063-16.105469-.953125-23.917969-2.953125-3.238281-.808594-6.664062.136719-9.023437 2.496094h.050781zm0 0"/><path d="m491.273438 477.578125-13.429688 13.429687-94.953125-94.953124 13.425781-13.429688zm0 0"/>
</symbol>

<symbol id="logout" viewBox="0 0 511.989 511.989"><title>logout</title><path d="M110.933,221.782c-4.71,0-8.533,3.823-8.533,8.533v51.2c0,4.71,3.823,8.533,8.533,8.533s8.533-3.823,8.533-8.533v-51.2 C119.467,225.605,115.644,221.782,110.933,221.782z"/><path d="M111.855,2.304L31.172,34.586C8.448,43,0,54.418,0,76.715v358.477c0,22.298,8.448,33.715,30.959,42.061l81.058,32.427 c4.011,1.519,8.038,2.287,11.981,2.287c17.152,0,29.602-14.336,29.602-34.091V34.049C153.6,9.78,134.246-6.126,111.855,2.304z M136.533,477.876c0,10.18-5.035,17.024-12.535,17.024c-1.869,0-3.883-0.401-5.803-1.118L37.103,461.33 c-16.102-5.965-20.036-11.102-20.036-26.138V76.715c0-15.036,3.934-20.164,20.241-26.206l80.725-32.29 c2.082-0.785,4.087-1.186,5.956-1.186c7.501,0,12.544,6.835,12.544,17.016V477.876z"/><path d="M178.133,51.115h120.533c14.114,0,25.6,11.486,25.6,25.6v128c0,4.71,3.814,8.533,8.533,8.533 c4.719,0,8.533-3.823,8.533-8.533v-128c0-23.526-19.14-42.667-42.667-42.667H178.133c-4.71,0-8.533,3.823-8.533,8.533 S173.423,51.115,178.133,51.115z"/><path d="M332.8,298.582c-4.719,0-8.533,3.823-8.533,8.533v128c0,14.114-11.486,25.6-25.6,25.6H179.2 c-4.71,0-8.533,3.823-8.533,8.533s3.823,8.533,8.533,8.533h119.467c23.526,0,42.667-19.14,42.667-42.667v-128 C341.333,302.405,337.519,298.582,332.8,298.582z"/><path d="M511.343,252.655c-0.435-1.05-1.058-1.988-1.852-2.782l-85.325-85.333c-3.337-3.336-8.73-3.336-12.066,0 c-3.337,3.337-3.337,8.73,0,12.066l70.767,70.775H196.267c-4.71,0-8.533,3.823-8.533,8.533c0,4.71,3.823,8.533,8.533,8.533 h286.601L412.1,335.215c-3.337,3.337-3.337,8.73,0,12.066c1.664,1.664,3.849,2.5,6.033,2.5c2.185,0,4.369-0.836,6.033-2.5 l85.325-85.325c0.794-0.794,1.417-1.732,1.852-2.782C512.205,257.093,512.205,254.738,511.343,252.655z"/></symbol>
<symbol id="edit" viewBox="0 0 55.25 55.25"><title>edit</title><path d="M52.618,2.631c-3.51-3.508-9.219-3.508-12.729,0L3.827,38.693C3.81,38.71,3.8,38.731,3.785,38.749 c-0.021,0.024-0.039,0.05-0.058,0.076c-0.053,0.074-0.094,0.153-0.125,0.239c-0.009,0.026-0.022,0.049-0.029,0.075 c-0.003,0.01-0.009,0.02-0.012,0.03l-3.535,14.85c-0.016,0.067-0.02,0.135-0.022,0.202C0.004,54.234,0,54.246,0,54.259 c0.001,0.114,0.026,0.225,0.065,0.332c0.009,0.025,0.019,0.047,0.03,0.071c0.049,0.107,0.11,0.21,0.196,0.296 c0.095,0.095,0.207,0.168,0.328,0.218c0.121,0.05,0.25,0.075,0.379,0.075c0.077,0,0.155-0.009,0.231-0.027l14.85-3.535 c0.027-0.006,0.051-0.021,0.077-0.03c0.034-0.011,0.066-0.024,0.099-0.039c0.072-0.033,0.139-0.074,0.201-0.123 c0.024-0.019,0.049-0.033,0.072-0.054c0.008-0.008,0.018-0.012,0.026-0.02l36.063-36.063C56.127,11.85,56.127,6.14,52.618,2.631z M51.204,4.045c2.488,2.489,2.7,6.397,0.65,9.137l-9.787-9.787C44.808,1.345,48.716,1.557,51.204,4.045z M46.254,18.895l-9.9-9.9 l1.414-1.414l9.9,9.9L46.254,18.895z M4.961,50.288c-0.391-0.391-1.023-0.391-1.414,0L2.79,51.045l2.554-10.728l4.422-0.491 l-0.569,5.122c-0.004,0.038,0.01,0.073,0.01,0.11c0,0.038-0.014,0.072-0.01,0.11c0.004,0.033,0.021,0.06,0.028,0.092 c0.012,0.058,0.029,0.111,0.05,0.165c0.026,0.065,0.057,0.124,0.095,0.181c0.031,0.046,0.062,0.087,0.1,0.127 c0.048,0.051,0.1,0.094,0.157,0.134c0.045,0.031,0.088,0.06,0.138,0.084C9.831,45.982,9.9,46,9.972,46.017 c0.038,0.009,0.069,0.03,0.108,0.035c0.036,0.004,0.072,0.006,0.109,0.006c0,0,0.001,0,0.001,0c0,0,0.001,0,0.001,0h0.001 c0,0,0.001,0,0.001,0c0.036,0,0.073-0.002,0.109-0.006l5.122-0.569l-0.491,4.422L4.204,52.459l0.757-0.757 C5.351,51.312,5.351,50.679,4.961,50.288z M17.511,44.809L39.889,22.43c0.391-0.391,0.391-1.023,0-1.414s-1.023-0.391-1.414,0 L16.097,43.395l-4.773,0.53l0.53-4.773l22.38-22.378c0.391-0.391,0.391-1.023,0-1.414s-1.023-0.391-1.414,0L10.44,37.738 l-3.183,0.354L34.94,10.409l9.9,9.9L17.157,47.992L17.511,44.809z M49.082,16.067l-9.9-9.9l1.415-1.415l9.9,9.9L49.082,16.067z"/></symbol>

<symbol id="search" viewBox="0 0 480.356 480.356"><title>search</title><g> <g> <path d="M469.725,418.417l-125.32-125.328c57.936-86.275,34.963-203.18-51.312-261.116S89.913-2.989,31.977,83.286 s-34.963,203.18,51.312,261.116c63.446,42.605,146.358,42.605,209.804,0l125.32,125.328c14.169,14.169,37.143,14.169,51.312,0 S483.895,432.587,469.725,418.417z M188.357,360.353c-94.949-0.106-171.894-77.051-172-172c0-94.993,77.007-172,172-172 s172,77.007,172,172S283.35,360.353,188.357,360.353z M458.421,458.41c-3.805,3.808-8.969,5.946-14.352,5.944 c-5.382,0.016-10.547-2.121-14.344-5.936L307.669,336.353l28.688-28.688l122.056,122.064 C466.335,437.647,466.339,450.488,458.421,458.41z"/> </g> </g><g> <g> <path d="M192.573,32.409l-0.424,16c41.401,1.072,80.192,20.463,105.896,52.936l12.528-9.952 C281.926,55.215,238.705,33.61,192.573,32.409z"/> </g> </g><g> <g> <path d="M322.245,108.233l-13.72,8.232c2.981,4.953,5.653,10.085,8,15.368l14.592-6.464 C328.513,119.481,325.551,113.758,322.245,108.233z"/> </g> </g></symbol>

</svg>